# xmcd
#
# Track frame offsets: 
#        151
#        14615
#        40844
#        61701
#        84792
#        105856
#        138102
#        174034
#        215677
#        244130
#
# Disc length: 3696 seconds
#
# Revision: 0
# Processed by: cddbd v1.5.2PL0 Copyright (c) Steve Scherf et al.
# Submitted via: ExactAudioCopy v0.95b4
#
DISCID=6f0e6e0a
DTITLE=Eric Clapton - Ice Palace Arena - Tampa Florida, May 19, 2001 -
DTITLE=CD1
DYEAR=2001
DGENRE=Blues
TTITLE0=Key To The Highway
TTITLE1=Reptile
TTITLE2=Got You On My Mind
TTITLE3=Bell Bottom Blues
TTITLE4=Tears In Heaven
TTITLE5=Change The World
TTITLE6=My Father's Eyes
TTITLE7=River Of Tears
TTITLE8=Going Down Slow
TTITLE9=She's Gone
EXTD=
EXTT0=
EXTT1=
EXTT2=
EXTT3=
EXTT4=
EXTT5=
EXTT6=
EXTT7=
EXTT8=
EXTT9=
PLAYORDER=
